# xmcd
#
# Track frame offsets: 
#        150
#        22440
#        38837
#        56341
#        72247
#        100164
#        121182
#        143310
#        159443
#        174495
#        191396
#        217971
#        236062
#
# Disc length: 3411 seconds
#
# Revision: 0
# Processed by: cddbd v1.5.2PL0 Copyright (c) Steve Scherf et al.
# Submitted via: ExactAudioCopy v0.95b4
#
DISCID=aa0d510d
DTITLE=Cope and Kennon - Standin' Right Here
DYEAR=2003
DGENRE=Country
TTITLE0=Lady
TTITLE1=Judas-Tree Ridge
TTITLE2=The Same Old Song
TTITLE3=I'm Going Back
TTITLE4=Your Mama and Me
TTITLE5=Won't You Stay
TTITLE6=Then It Was Yesterday
TTITLE7=Come Dance With Me Tonight
TTITLE8=When I Close My Eyes
TTITLE9=Superstar
TTITLE10=Tennessee
TTITLE11=Mother's Altar
TTITLE12=Linda
EXTD=
EXTT0=
EXTT1=
EXTT2=
EXTT3=
EXTT4=
EXTT5=
EXTT6=
EXTT7=
EXTT8=
EXTT9=
EXTT10=
EXTT11=
EXTT12=
PLAYORDER=
